<svg width="1074" height="1108" viewBox="0 0 1074 1108" fill="none" xmlns="http://www.w3.org/2000/svg">
<path fill-rule="evenodd" clip-rule="evenodd" d="M764.887 0.673171C756.285 1.82633 706.062 8.66248 653.281 15.8712C558.281 28.8399 556.316 28.8693 459.393 18.7807C405.536 13.1746 336.754 8.63294 306.544 8.69208C274.259 8.7512 243.112 12.1515 230.979 16.9475C219.625 21.43 204.378 32.2638 197.092 41.0218C189.811 49.774 179.486 71.1399 174.142 88.5023C168.096 108.171 150.509 137.544 127.478 166.438C107.146 191.944 80.7077 231.441 68.7241 254.208C56.7405 276.976 39.8852 316.893 31.2721 342.914C22.6618 368.932 12.0641 411.512 7.73222 437.53C3.39754 463.551 0.00732087 520.764 0.201285 564.672C0.426171 615.785 4.35327 661.528 11.1195 691.818C16.93 717.836 28.4582 757.501 36.7397 779.954C45.0126 802.407 61.8819 838.151 74.2225 859.374C86.5632 880.598 109.417 913.644 125.016 932.809C140.606 951.969 172.048 982.27 194.877 1000.14C217.705 1018.01 261.713 1044.41 292.671 1058.82C323.632 1073.22 365.849 1089.29 386.491 1094.54C408.192 1100.06 460.942 1105.34 511.578 1107.08C575.662 1109.28 612.796 1107.65 650.054 1100.98C678.055 1095.98 720.272 1084.69 743.871 1075.9C767.47 1067.11 809.774 1045.59 837.887 1028.08C866.001 1010.56 905.404 979.302 925.449 958.615C945.495 937.924 974.404 900.325 989.691 875.062C1004.97 849.799 1025.05 808.884 1034.31 784.13C1043.57 759.381 1056.33 716.507 1062.67 688.861C1071.61 649.942 1074.12 614.555 1073.81 532.149C1073.46 436.218 1071.77 419.866 1056.73 366.62C1047.54 334.119 1030.34 288.229 1018.49 264.64C1006.64 241.05 987.878 209.099 976.783 193.629C965.693 178.159 949.004 157.136 939.699 146.905C930.397 136.675 917.938 115.386 912.01 99.5963C906.087 83.8069 896.85 60.8621 891.483 48.609C886.117 36.3561 873.026 21.3827 862.392 15.339C851.766 9.29525 828.993 3.05046 811.795 1.46561C794.594 -0.11924 773.486 -0.474073 764.887 0.673171ZM662.693 93.6827C680.45 98.2955 710.003 108.632 728.365 116.663C746.736 124.694 778.644 143.381 799.286 158.189C819.925 173.002 851.285 203.327 868.972 225.58C886.654 247.827 908.4 279.785 917.289 296.591C926.169 313.399 935.277 337.969 937.509 351.198C940.598 369.447 939.373 376.04 932.424 378.559C927.389 380.388 884.115 370.021 836.263 355.526C788.401 341.031 731.143 326.07 709.019 322.279C686.893 318.49 659.573 317.023 648.309 319.022C636.8 321.063 621.941 329.683 614.385 338.696C602.988 352.292 601.437 360.015 604.189 389.299C606.491 413.711 611.458 427.898 621.125 437.626C628.651 445.194 673.22 470.707 720.171 494.313C767.124 517.92 820.782 539.528 836.263 549.163C851.74 558.801 873.805 565.86 888.245 579.948C901.362 591.68 914.829 603.277 921.309 613.141C927.788 623.005 935.988 663.035 939.536 677.984C944.489 698.888 943.82 713.177 936.626 739.882C931.485 758.985 918.515 791.147 907.802 811.366C897.086 831.581 873.639 864.955 855.687 885.522C837.744 906.098 803.637 935.393 779.903 950.626C756.161 965.867 718.307 984.826 695.774 992.767C673.246 1000.7 631.321 1010.45 602.614 1014.42C571.372 1018.74 529.136 1020.09 497.419 1017.78C468.273 1015.66 424.353 1007.53 399.824 999.717C375.289 991.897 341.145 978.16 323.944 969.189C306.746 960.218 271.194 932.473 244.95 907.529C206.916 871.384 191.118 850.539 167.151 804.892C144.359 761.479 136.434 739.226 134.427 712.954C132.963 693.785 135.285 668.239 139.619 655.814C143.934 643.454 160.433 600.478 176.29 584.434C192.139 568.385 220.59 545.357 239.508 533.252C258.429 521.149 308.514 514.332 350.807 493.994C393.1 473.658 435.8 450.577 445.7 442.698C458.016 432.899 465.771 419.233 470.275 399.389C474.784 379.494 474.84 364.946 470.449 353.03C466.927 343.485 457.021 332.646 448.427 328.945C439.839 325.242 423.796 322.256 412.777 322.304C401.758 322.352 374.451 326.443 352.089 331.405C329.73 336.361 281.233 349.626 244.312 360.883C207.397 372.144 170.021 381.352 161.248 381.352C152.48 381.352 143.791 377.637 141.953 373.102C140.106 368.559 141.545 354.593 145.135 342.055C148.733 329.519 162.285 302.115 175.264 281.163C188.242 260.205 219.963 222.771 245.763 197.97C273.303 171.5 309.459 144.085 333.328 131.577C355.687 119.856 388.264 105.912 405.721 100.584C423.178 95.2558 451.323 88.5201 468.268 85.6166C485.21 82.7128 528.621 81.4533 564.741 82.8194C600.863 84.1855 644.944 89.0759 662.693 93.6827Z" fill="url(#paint0_linear_78_20)"/>
<defs>
<linearGradient id="paint0_linear_78_20" x1="537.015" y1="0" x2="532.721" y2="1108" gradientUnits="userSpaceOnUse">
<stop stop-color="#F1F8FF"/>
<stop offset="1" stop-color="#EFDFD0"/>
</linearGradient>
</defs>
</svg>
