<svg width="190" height="18" viewBox="0 0 190 18" fill="none" xmlns="http://www.w3.org/2000/svg">
<g id="LOGO WHITE 2" clip-path="url(#clip0_330_41)">
<path id="Vector" d="M0 17.278V0.308594H2.10124V7.878L9.3469 0.308594H11.9657L3.97476 8.63905L12.8766 17.278H9.94725L2.10124 9.72919V17.278H0Z" fill="#282B46"/>
<path id="Vector_2" d="M45.4609 17.278V0.308594H47.5624L56.1951 13.7504V0.308594H58.2961V17.278H56.1951L47.5624 3.84646V17.278H45.4609Z" fill="#282B46"/>
<path id="Vector_3" d="M69.8047 17.278V0.308594H74.6488C75.7667 0.308594 76.7397 0.500569 77.5677 0.884527C78.3958 1.26848 79.0374 1.82384 79.4929 2.55062C79.9556 3.27738 80.1866 4.16185 80.1866 5.20399C80.1866 6.23245 79.9556 7.13065 79.4929 7.89855C79.0374 8.6596 78.3958 9.24925 77.5677 9.66747C76.7397 10.0857 75.7667 10.2948 74.6488 10.2948H71.9057V17.278H69.8047ZM71.9057 8.57732H74.0792C74.8525 8.57732 75.5321 8.44706 76.1184 8.1865C76.7119 7.92599 77.1745 7.54886 77.5054 7.05523C77.8439 6.56159 78.0127 5.96162 78.0127 5.25544C78.0127 4.54238 77.8439 3.94587 77.5054 3.46593C77.1745 2.97913 76.7119 2.61232 76.1184 2.36549C75.5321 2.11866 74.8525 1.99525 74.0792 1.99525H71.9057V8.57732Z" fill="#282B46"/>
<path id="Vector_4" d="M87.1953 17.278L93.9545 0.308594H95.9106L102.67 17.278H100.403L98.5087 12.3312H91.3563L89.4519 17.278H87.1953ZM92.0704 10.4902H97.7947L94.9274 3.09569L92.0704 10.4902Z" fill="#282B46"/>
<path id="Vector_5" d="M112.367 17.278V0.308594H114.468L123.101 13.7504V0.308594H125.202V17.278H123.101L114.468 3.84646V17.278H112.367Z" fill="#282B46"/>
<path id="Vector_6" d="M136.719 17.278V0.308594H138.82V17.278H136.719Z" fill="#282B46"/>
<path id="Vector_7" d="M157.823 17.607C156.629 17.607 155.511 17.3808 154.469 16.9283C153.427 16.4758 152.513 15.8484 151.726 15.0462C150.939 14.2372 150.322 13.3013 149.873 12.2386C149.432 11.169 149.211 10.0239 149.211 8.80354C149.211 7.57624 149.432 6.43122 149.873 5.36852C150.322 4.30578 150.939 3.37331 151.726 2.57112C152.513 1.76208 153.427 1.1313 154.469 0.678776C155.511 0.226259 156.629 0 157.823 0C159.017 0 160.135 0.226259 161.177 0.678776C162.218 1.1313 163.133 1.76208 163.92 2.57112C164.706 3.37331 165.32 4.30578 165.762 5.36852C166.211 6.43122 166.435 7.57624 166.435 8.80354C166.435 10.0239 166.211 11.169 165.762 12.2386C165.32 13.3013 164.706 14.2372 163.92 15.0462C163.133 15.8484 162.218 16.4758 161.177 16.9283C160.135 17.3808 159.017 17.607 157.823 17.607ZM157.823 15.5913C158.72 15.5913 159.551 15.4199 160.318 15.0771C161.09 14.7342 161.763 14.2577 162.336 13.6475C162.916 13.0305 163.364 12.3106 163.681 11.4878C164.006 10.6582 164.168 9.76342 164.168 8.80354C164.168 7.84365 164.006 6.9523 163.681 6.12957C163.364 5.29995 162.916 4.58003 162.336 3.96981C161.763 3.35275 161.09 2.8728 160.318 2.52998C159.551 2.18717 158.72 2.01576 157.823 2.01576C156.926 2.01576 156.091 2.18717 155.318 2.52998C154.552 2.8728 153.879 3.35275 153.299 3.96981C152.727 4.58003 152.278 5.29995 151.954 6.12957C151.636 6.9523 151.478 7.84365 151.478 8.80354C151.478 9.76342 151.636 10.6582 151.954 11.4878C152.278 12.3106 152.727 13.0305 153.299 13.6475C153.879 14.2577 154.552 14.7342 155.318 15.0771C156.091 15.4199 156.926 15.5913 157.823 15.5913Z" fill="#282B46"/>
<path id="Vector_8" d="M176.852 17.278V0.308594H178.953L187.586 13.7504V0.308594H189.687V17.278H187.586L178.953 3.84646V17.278H176.852Z" fill="#282B46"/>
<path id="Vector_9" fill-rule="evenodd" clip-rule="evenodd" d="M31.7152 0.0143598C31.58 0.0322671 30.7906 0.138425 29.9609 0.250368C28.4676 0.451758 28.4368 0.452214 26.9133 0.29555C26.0667 0.208493 24.9856 0.137966 24.5107 0.138885C24.0032 0.139803 23.5136 0.192606 23.3229 0.267082C23.1445 0.336691 22.9048 0.504928 22.7903 0.640929C22.6758 0.776842 22.5135 1.10863 22.4295 1.37825C22.3345 1.68368 22.0581 2.13982 21.696 2.58851C21.3765 2.98458 20.9609 3.59792 20.7725 3.95147C20.5842 4.30503 20.3192 4.9249 20.1838 5.32898C20.0485 5.73301 19.8819 6.39423 19.8138 6.79826C19.7457 7.20234 19.6924 8.09079 19.6954 8.77264C19.699 9.56636 19.7607 10.2767 19.8671 10.7471C19.9584 11.1511 20.1396 11.7671 20.2698 12.1157C20.3998 12.4644 20.665 13.0195 20.8589 13.349C21.0529 13.6786 21.4122 14.1918 21.6573 14.4894C21.9024 14.7869 22.3966 15.2575 22.7555 15.535C23.1143 15.8124 23.806 16.2224 24.2926 16.4461C24.7793 16.6698 25.4429 16.9194 25.7674 17.0009C26.1085 17.0866 26.9376 17.1687 27.7335 17.1957C28.7409 17.2297 29.3245 17.2044 29.9102 17.1009C30.3503 17.0232 31.0139 16.8479 31.3849 16.7115C31.7558 16.575 32.4208 16.2408 32.8627 15.9688C33.3046 15.6968 33.9239 15.2114 34.239 14.8901C34.5541 14.5688 35.0085 13.985 35.2488 13.5926C35.4889 13.2003 35.8047 12.565 35.9501 12.1806C36.0958 11.7962 36.2963 11.1305 36.396 10.7011C36.5364 10.0968 36.5759 9.54726 36.5711 8.26759C36.5655 6.77789 36.5389 6.52396 36.3025 5.6971C36.1581 5.1924 35.8878 4.47977 35.7015 4.11347C35.5153 3.74715 35.2203 3.25098 35.0459 3.01075C34.8716 2.77052 34.6092 2.44405 34.463 2.28518C34.3168 2.12631 34.1209 1.79572 34.0278 1.55053C33.9347 1.30534 33.7895 0.949027 33.7051 0.75875C33.6208 0.568477 33.415 0.335956 33.2478 0.242104C33.0808 0.148251 32.7229 0.0512764 32.4525 0.0266656C32.1821 0.00205459 31.8504 -0.00345558 31.7152 0.0143598ZM30.1089 1.4587C30.388 1.53033 30.8525 1.69085 31.1411 1.81556C31.4299 1.94026 31.9314 2.23045 32.2559 2.4604C32.5803 2.69044 33.0733 3.16135 33.3513 3.50692C33.6292 3.85239 33.971 4.34865 34.1107 4.60964C34.2503 4.87064 34.3935 5.25219 34.4286 5.45761C34.4771 5.741 34.4579 5.84338 34.3486 5.8825C34.2695 5.91091 33.5893 5.74992 32.8371 5.52483C32.0848 5.29974 31.1848 5.06741 30.837 5.00854C30.4893 4.94971 30.0598 4.92692 29.8828 4.95796C29.7019 4.98966 29.4683 5.12352 29.3495 5.26348C29.1704 5.4746 29.146 5.59455 29.1893 6.04929C29.2254 6.42838 29.3035 6.64869 29.4555 6.79976C29.5738 6.91728 30.2743 7.31346 31.0123 7.68004C31.7504 8.04663 32.5938 8.38218 32.8371 8.53179C33.0804 8.68146 33.4272 8.79108 33.6542 9.00985C33.8604 9.19204 34.0721 9.37213 34.1739 9.52531C34.2758 9.67848 34.4047 10.3001 34.4604 10.5323C34.5383 10.8569 34.5278 11.0788 34.4147 11.4935C34.3339 11.7901 34.13 12.2895 33.9616 12.6035C33.7932 12.9174 33.4246 13.4357 33.1424 13.7551C32.8604 14.0746 32.3243 14.5295 31.9512 14.7661C31.578 15.0027 30.983 15.2972 30.6288 15.4205C30.2747 15.5437 29.6157 15.695 29.1645 15.7567C28.6734 15.8238 28.0095 15.8448 27.511 15.8089C27.0529 15.776 26.3625 15.6498 25.9769 15.5284C25.5913 15.407 25.0546 15.1936 24.7842 15.0543C24.5139 14.915 23.9551 14.4842 23.5425 14.0968C22.9447 13.5355 22.6964 13.2118 22.3196 12.503C21.9614 11.8288 21.8368 11.4833 21.8053 11.0753C21.7823 10.7776 21.8188 10.3809 21.8869 10.188C21.9547 9.99603 22.214 9.32867 22.4633 9.07952C22.7124 8.83029 23.1596 8.4727 23.457 8.28471C23.7544 8.09677 24.5417 7.99092 25.2065 7.67508C25.8712 7.35929 26.5424 7.00087 26.698 6.87852C26.8916 6.72635 27.0135 6.51413 27.0843 6.20598C27.1552 5.89703 27.1561 5.67111 27.0871 5.48606C27.0317 5.33785 26.876 5.16953 26.7409 5.11206C26.6059 5.05455 26.3537 5.00818 26.1805 5.00893C26.0073 5.00968 25.5781 5.0732 25.2266 5.15025C24.8751 5.22721 24.1129 5.4332 23.5325 5.60802C22.9523 5.78289 22.3648 5.92588 22.2269 5.92588C22.089 5.92588 21.9525 5.86819 21.9236 5.79777C21.8945 5.72722 21.9172 5.51034 21.9736 5.31563C22.0301 5.12097 22.2432 4.69542 22.4472 4.37005C22.6512 4.0446 23.1498 3.4633 23.5553 3.07815C23.9882 2.66711 24.5565 2.24138 24.9317 2.04715C25.2832 1.86514 25.7952 1.6486 26.0696 1.56587C26.344 1.48312 26.7864 1.37852 27.0528 1.33344C27.3191 1.28834 28.0014 1.26879 28.5692 1.29C29.137 1.31121 29.8299 1.38716 30.1089 1.4587Z" fill="#282B46"/>
</g>
<defs>
<clipPath id="clip0_330_41">
<rect width="190" height="18" fill="white"/>
</clipPath>
</defs>
</svg>
